<?xml version="1.0" encoding="UTF-8" standalone="no"?>
<svg
   xmlns:dc="http://purl.org/dc/elements/1.1/"
   xmlns:cc="http://creativecommons.org/ns#"
   xmlns:rdf="http://www.w3.org/1999/02/22-rdf-syntax-ns#"
   xmlns:svg="http://www.w3.org/2000/svg"
   xmlns="http://www.w3.org/2000/svg"
   xml:space="preserve"
   style="enable-background:new 0 0 27.965 27.965;"
   viewBox="0 0 27.965 27.965"
   y="0px"
   x="0px"
   id="Capa_1"
   version="1.1">
<path
   id="path861"
   d="M 13.980469 0 C 6.2594687 0 -2.3684758e-15 6.2604219 0 13.982422 C 0 21.703422 6.2594688 27.964844 13.980469 27.964844 C 21.705469 27.964844 27.964844 21.702422 27.964844 13.982422 C 27.964844 6.2604219 21.705469 -2.3684758e-15 13.980469 0 z M 9.6523438 7.1074219 C 9.6523438 7.1074219 13.715455 11.433594 13.978516 11.433594 C 14.243865 11.433594 18.308594 7.1074219 18.308594 7.1074219 L 20.855469 9.6582031 C 20.855469 9.6582031 16.527344 13.686332 16.527344 13.988281 C 16.527344 14.275359 20.855469 18.3125 20.855469 18.3125 L 18.308594 20.857422 C 18.308594 20.857422 14.279321 16.533203 13.978516 16.533203 C 13.682286 16.533203 9.6523438 20.857422 9.6523438 20.857422 L 7.1035156 18.3125 C 7.1035156 18.3125 11.431641 14.341697 11.431641 13.988281 C 11.431641 13.629145 7.1035156 9.6582031 7.1035156 9.6582031 L 9.6523438 7.1074219 z " />
</svg>
